# xmcd
#
# Track frame offsets:
#	150
#	14625
#	30210
#	48195
#	62587
#	76930
#	94010
#	109860
#	125482
#	138375
#	154930
#	172160
#	190735
#	204497
#	218222
#	220777
#	223327
#	225887
#
# Disc length: 3071
#
# Revision: 1
# Processed by: cddbd v1.5.1PL0 Copyright (c) Steve Scherf et al.
# Submitted via: VisiTrax 2.9.5.180 - For more info visit www.synapsa.com
# Normalized: r0:DSETVAR1
#
DISCID=f90bfd12
DTITLE=Various Artist - CDX 161 May 1997
DYEAR=1997
DGENRE=
TTITLE0=Teresa - Baby that's what love does
TTITLE1=David Kersh - Day in day out
TTITLE2=Lila McCann - Down came the blackbird
TTITLE3=Trace Adkins - I left something turned on at home
TTITLE4=Kathy Mattea - I'm on your side
TTITLE5=Tim McGraw - It's your love
TTITLE6=Sherrie Austin - Lucky in love
TTITLE7=Kenny Chesney - She's got it all
TTITLE8=Crawford/West - Summertime girls
TTITLE9=Ray Stevens - Too drunk to fish
TTITLE10=Big House - You ain't lonely yet
TTITLE11=Crystal Bernard - You're gonna miss a whole lotta love
TTITLE12=Littlr Texas - Your mama won't let me
TTITLE13=Jesse Wilson - Love won't let me let you go
TTITLE14=Joe Diffie - PSA
TTITLE15=Joe Diffie - PSA
TTITLE16=Joe Diffie - PSA
TTITLE17=Joe Diffie - PSA
EXTD=
EXTT0=
EXTT1=
EXTT2=
EXTT3=
EXTT4=
EXTT5=
EXTT6=
EXTT7=
EXTT8=
EXTT9=
EXTT10=
EXTT11=
EXTT12=
EXTT13=
EXTT14=
EXTT15=
EXTT16=
EXTT17=
PLAYORDER=
